<?xml version="1.0" standalone="no"?>
<!DOCTYPE svg PUBLIC "-//W3C//DTD SVG 20010904//EN"
 "http://www.w3.org/TR/2001/REC-SVG-20010904/DTD/svg10.dtd">
<svg version="1.0" xmlns="http://www.w3.org/2000/svg"
 width="512.000000pt" height="512.000000pt" viewBox="0 0 512.000000 512.000000"
 preserveAspectRatio="xMidYMid meet">
<metadata>
Created by Marmott' 2022
</metadata>
<g transform="translate(0.000000,512.000000) scale(0.100000,-0.100000)"
fill="#000000" stroke="none">
<path d="M2075 4571 c-156 -47 -228 -86 -298 -161 -34 -36 -75 -89 -91 -116
l-29 -49 -96 -22 c-53 -11 -125 -32 -161 -46 l-65 -25 497 1 c274 1 498 5 498
9 0 3 -31 30 -70 59 -59 45 -70 59 -70 83 0 28 -1 29 -14 10 -26 -35 -29 -5
-6 53 12 32 26 85 31 118 4 33 11 72 15 88 6 25 4 27 -22 26 -16 0 -69 -12
-119 -28z"/>
<path d="M1603 4074 c-9 -4 -8 -14 4 -38 15 -32 17 -33 67 -29 l51 5 -90 -46
c-49 -24 -134 -80 -188 -123 l-97 -78 62 -10 c121 -21 199 -79 278 -208 87
-140 120 -287 84 -363 -32 -68 -117 -82 -240 -40 -92 31 -123 47 -187 100 -39
32 -82 53 -156 79 -95 32 -237 108 -283 151 -14 13 -18 25 -13 40 17 54 17 76
0 83 -12 4 -24 -1 -36 -16 l-18 -22 -26 50 c-27 54 -60 80 -78 62 -7 -7 -7
-21 0 -46 10 -32 10 -34 -7 -25 -11 6 -22 15 -25 20 -8 13 -42 13 -51 -1 -3
-6 8 -31 26 -55 l31 -44 -30 0 c-44 0 -38 -20 17 -58 124 -86 151 -108 246
-200 57 -53 144 -126 195 -162 92 -65 92 -65 86 -101 l-6 -36 150 -59 150 -59
42 -130 c22 -71 61 -186 86 -255 25 -69 47 -134 48 -145 5 -34 144 -366 186
-442 22 -39 60 -99 84 -132 25 -34 45 -72 45 -86 0 -32 40 -142 73 -197 38
-65 104 -128 165 -155 39 -18 51 -29 48 -41 -3 -10 -8 -30 -12 -45 -5 -23 -38
-50 -168 -136 -218 -146 -234 -154 -371 -201 -173 -60 -240 -94 -270 -138 -30
-43 -32 -72 -7 -102 15 -18 31 -23 88 -27 126 -9 211 30 489 227 353 250 1060
743 1073 748 12 4 14 1 8 -13 -4 -11 -10 -39 -13 -63 -6 -42 -23 -63 -276
-331 -366 -388 -509 -533 -592 -598 -131 -104 -185 -165 -185 -207 0 -8 10
-25 23 -37 47 -45 195 -2 344 99 73 49 202 184 510 530 131 147 493 544 804
882 311 338 589 641 617 674 52 59 102 146 102 176 0 25 -88 100 -117 100 -6
0 -33 -29 -60 -64 -26 -35 -138 -160 -249 -278 -199 -212 -203 -215 -386 -341
l-185 -126 -87 51 -86 52 50 27 c130 71 218 164 260 275 21 56 43 223 34 249
-7 16 -30 13 -139 -15 -91 -24 -221 -79 -279 -118 l-46 -31 -35 54 c-30 45
-80 101 -63 70 3 -5 44 -75 91 -155 47 -80 89 -154 93 -165 4 -11 -49 72 -116
185 -135 225 -151 249 -164 250 -5 0 -39 24 -76 54 -81 66 -168 165 -153 174
5 4 12 12 14 19 4 12 166 123 179 123 3 0 23 -22 44 -50 36 -48 58 -61 70 -41
3 5 -12 33 -34 62 -22 30 -40 56 -40 60 0 3 26 27 58 52 31 25 72 59 90 76
l33 31 57 -32 c69 -38 67 -37 59 -44 -3 -3 -32 8 -63 25 -74 40 -83 33 -11 -8
62 -35 87 -39 87 -13 0 12 -19 27 -56 45 -30 15 -54 32 -52 38 5 14 123 59
155 59 13 0 34 11 47 25 l23 25 39 -58 c28 -41 38 -68 38 -96 1 -38 -7 -46
-244 -277 -135 -130 -243 -239 -240 -242 3 -3 116 104 253 238 296 290 285
265 182 414 -36 52 -65 100 -65 107 0 6 -8 18 -18 25 -11 8 -61 73 -113 144
-52 72 -116 153 -144 181 l-50 51 -184 7 c-101 3 -269 6 -373 6 -142 0 -189 3
-192 13 -15 56 -26 74 -55 94 -39 27 -74 29 -115 8 -27 -14 -32 -14 -75 7 -38
19 -64 23 -146 24 -63 1 -118 7 -149 18 -46 15 -127 20 -153 10z m206 -124
c67 -47 106 -160 81 -234 -22 -68 -93 -96 -158 -62 -88 46 -136 177 -96 262
31 65 109 81 173 34z m416 -18 c9 -24 -37 -83 -89 -113 -17 -10 -18 -7 -14 51
4 50 9 67 27 81 18 15 27 16 46 7 13 -6 26 -17 30 -26z m633 -52 c65 0 101 -4
97 -10 -3 -5 -103 -96 -222 -201 l-217 -191 -13 44 c-15 51 -47 90 -68 82 -22
-9 -18 -35 6 -41 24 -7 39 -40 39 -87 0 -26 -7 -39 -34 -59 l-34 -26 -88 206
c-72 169 -85 208 -75 222 6 9 19 29 29 45 l17 28 230 -6 c127 -3 276 -6 333
-6z m192 -17 c32 -22 44 -36 146 -171 l85 -112 -53 -60 c-29 -33 -55 -60 -59
-60 -4 0 -12 14 -19 30 -16 38 -46 56 -66 39 -20 -16 -18 -30 11 -69 32 -44
32 -64 -2 -79 -28 -13 -30 -11 -141 105 -87 91 -115 115 -124 106 -9 -9 -9
-18 4 -40 19 -32 48 -138 48 -176 0 -15 -6 -26 -13 -26 -12 0 -89 48 -154 96
-21 15 -43 12 -43 -5 0 -5 25 -39 55 -77 l55 -69 -68 -6 c-74 -6 -82 -4 -82
17 0 11 -14 14 -60 14 l-60 0 0 63 c0 75 -27 44 270 306 118 105 222 190 230
191 9 0 27 -8 40 -17z m-162 -325 c25 -29 73 -79 105 -111 33 -31 57 -60 53
-64 -3 -4 -41 27 -82 68 -44 42 -74 66 -70 54 3 -11 10 -51 17 -89 9 -56 9
-70 -2 -77 -22 -14 -33 -11 -94 21 l-57 30 26 -31 c26 -30 33 -50 19 -48 -12
1 -122 146 -116 152 3 3 33 -15 66 -40 70 -51 126 -78 138 -66 11 12 -19 159
-42 204 -34 68 -22 67 39 -3z m-634 -4 c11 -28 6 -39 -9 -20 -8 11 -15 23 -15
28 0 14 18 9 24 -8z m1060 -41 c-22 -16 -23 -14 -17 21 6 28 7 28 20 10 12
-16 11 -20 -3 -31z m-1195 -53 c12 -36 -1 -40 -17 -5 -14 31 -15 35 -3 35 5 0
14 -13 20 -30z m850 -34 l53 -53 -45 -16 -45 -15 -7 56 c-4 30 -9 61 -12 69
-9 22 0 15 56 -41z m431 2 c0 -1 -18 -3 -39 -3 l-39 0 20 28 20 28 19 -25 c10
-13 19 -26 19 -28z m-920 -28 c0 -43 -6 -48 -36 -26 -19 14 -19 15 5 40 14 14
26 26 28 26 2 0 3 -18 3 -40z m-480 -35 c0 -5 -5 -3 -10 5 -5 8 -10 20 -10 25
0 6 5 3 10 -5 5 -8 10 -19 10 -25z m850 -35 c13 -8 13 -10 -2 -10 -9 0 -20 5
-23 10 -8 13 5 13 25 0z m-600 -21 c0 -6 -4 -7 -10 -4 -5 3 -10 11 -10 16 0 6
5 7 10 4 6 -3 10 -11 10 -16z m-363 -56 c-3 -10 -5 -4 -5 12 0 17 2 24 5 18 2
-7 2 -21 0 -30z m263 -41 c0 -15 -2 -15 -10 -2 -13 20 -13 33 0 25 6 -3 10
-14 10 -23z m-106 -114 c2 -10 1 -18 -3 -18 -9 0 -41 55 -41 72 0 16 37 -30
44 -54z m960 -12 c46 -57 47 -84 0 -31 -42 48 -58 75 -46 75 5 0 26 -20 46
-44z m-1064 -24 c0 -15 -2 -15 -10 -2 -13 20 -13 33 0 25 6 -3 10 -14 10 -23z
m-167 -72 c3 -11 1 -18 -4 -14 -5 3 -9 12 -9 20 0 20 7 17 13 -6z m-92 -12
c11 -21 11 -22 -4 -9 -10 7 -17 17 -17 22 0 15 9 10 21 -13z m1881 -380 c-7
-7 -12 -8 -12 -2 0 6 3 14 7 17 3 4 9 5 12 2 2 -3 -1 -11 -7 -17z m-542 -101
c0 -18 -2 -19 -10 -7 -13 20 -13 43 0 35 6 -3 10 -16 10 -28z m460 18 c-7 -9
-15 -13 -17 -11 -7 7 7 26 19 26 6 0 6 -6 -2 -15z m-124 -23 c-18 -16 -18 -16
-6 6 6 13 14 21 18 18 3 -4 -2 -14 -12 -24z m-1009 -2 c24 -14 46 -46 84 -122
28 -57 53 -105 54 -106 5 -6 88 53 156 110 l61 50 40 -38 c36 -36 98 -116 98
-128 0 -2 -24 -11 -53 -20 -100 -29 -139 -96 -145 -247 -4 -95 -2 -112 21
-167 l25 -62 -65 -20 c-181 -56 -399 4 -516 141 -38 44 -97 151 -97 175 0 8
19 16 49 20 27 3 54 9 60 13 8 6 -4 39 -40 113 -56 116 -58 141 -17 194 25 31
190 114 227 114 14 0 41 -9 58 -20z m1240 -6 c-3 -3 -12 -4 -19 -1 -8 3 -5 6
6 6 11 1 17 -2 13 -5z m-681 -55 c9 -15 -23 -10 -35 5 -10 12 -8 13 9 9 11 -3
23 -9 26 -14z m160 -107 c-4 -3 -14 2 -24 12 -16 18 -16 18 6 6 13 -6 21 -14
18 -18z m377 1 c-7 -2 -19 -2 -25 0 -7 3 -2 5 12 5 14 0 19 -2 13 -5z m-30
-90 c-7 -2 -21 -2 -30 0 -10 3 -4 5 12 5 17 0 24 -2 18 -5z m-1479 -370 c9
-18 14 -33 12 -33 -6 0 -36 55 -36 66 0 11 5 3 24 -33z m145 -78 c0 -5 -6 -1
-14 9 -8 11 -15 27 -15 35 1 17 29 -26 29 -44z m334 -115 c3 -11 1 -18 -4 -14
-5 3 -9 12 -9 20 0 20 7 17 13 -6z m-272 -42 c15 -28 -9 -19 -29 10 -13 20
-13 22 2 16 9 -3 21 -15 27 -26z m130 5 c13 -16 12 -17 -3 -4 -17 13 -22 21
-14 21 2 0 10 -8 17 -17z m169 -113 c6 -11 7 -20 2 -20 -10 0 -32 21 -32 32 0
16 19 8 30 -12z"/>
<path d="M1710 3881 c-20 -38 -12 -88 21 -126 36 -41 70 -46 93 -13 29 41 14
115 -18 89 -8 -7 -25 -11 -38 -9 -19 2 -23 9 -23 41 0 41 -18 50 -35 18z"/>
<path d="M2185 2377 c-64 -34 -81 -47 -83 -67 -3 -26 77 -202 97 -215 6 -3 59
16 116 44 76 36 105 55 105 68 0 10 -21 61 -48 113 -58 117 -68 120 -187 57z"/>
<path d="M1206 3643 c-74 -65 -75 -68 -36 -156 21 -48 22 -48 65 -46 49 3 93
-24 75 -46 -11 -13 19 -44 110 -115 70 -54 145 -90 191 -90 67 0 100 60 79
142 -11 40 -81 182 -100 202 -5 4 -62 -20 -129 -55 -115 -60 -122 -62 -139
-46 -14 15 -17 37 -17 127 0 87 -3 112 -16 125 -15 15 -22 12 -83 -42z m14
-38 c-7 -8 -19 -15 -27 -15 -13 0 -13 3 -3 15 7 8 19 15 27 15 13 0 13 -3 3
-15z m-40 -29 c0 -3 -4 -8 -10 -11 -5 -3 -10 -1 -10 4 0 6 5 11 10 11 6 0 10
-2 10 -4z m433 -129 c20 -35 37 -66 37 -69 0 -3 -16 -8 -36 -11 -58 -10 -96
-56 -58 -71 9 -3 32 -6 52 -6 20 0 43 -4 50 -9 21 -13 10 -43 -19 -60 -22 -12
-34 -13 -67 -3 -43 13 -133 71 -197 127 l-40 35 25 20 c22 17 195 107 210 109
3 1 23 -28 43 -62z"/>
</g>
</svg>
